{"title":"Sweet Talker 1991 VHS","uid":7443965,"size":3702514016,"categoryP":"video","categoryS":"movies","magnet":"?xt=urn:btih:600eaa7d8a043846975504c48093275b5904cf60&amp;dn=Sweet+Talker+1991+VHS&amp;tr=udp%3A%2F%2Ftracker.openbittorrent.com%3A80&amp;tr=udp%3A%2F%2Fopen.demonii.com%3A1337&amp;tr=udp%3A%2F%2Ftracker.coppersurfer.tk%3A6969&amp;tr=udp%3A%2F%2Fexodus.desync.com%3A6969","seeders":0,"leechers":0,"uploader":"doobsie101","files":11,"time":1342303174,"description":" &lt;a href=&quot;http://www.imdb.com/title/tt0103015/&quot; rel=&quot;nofollow&quot; target=&quot;_NEW&quot;&gt;http://www.imdb.com/title/tt0103015/&lt;/a&gt;\n\nFile Size is large, Due to circumstances. even though its a VHSRip, It is highest quality it can be for the original.\n\nComplete name                            : Sweet Talker 1991 (VHS) 480p.mpg\nFormat                                   : MPEG-PS\nFile size                                : 3.44 GiB\nDuration                                 : 1h 28mn\nOverall bit rate mode                    : Variable\nOverall bit rate                         : 5 570 Kbps\nWriting library                          : created by Nero\n\nVideo\nID                                       : 224 (0xE0)\nFormat                                   : MPEG Video\nFormat version                           : Version 2\nFormat profile                           : Main@Main\nFormat settings, BVOP                    : Yes\nFormat settings, Matrix                  : Default\nFormat settings, GOP                     : M=3, N=12\nDuration                                 : 1h 28mn\nBit rate mode                            : Variable\nBit rate                                 : 3 924 Kbps\nMaximum bit rate                         : 4 845 Kbps\nWidth                                    : 720 pixels\nHeight                                   : 480 pixels\nDisplay aspect ratio                     : 4:3\nFrame rate                               : 29.970 fps\nStandard                                 : NTSC\nColor space                              : YUV\nChroma subsampling                       : 4:2:0\nBit depth                                : 8 bits\nScan type                                : Progressive\nScan order                               : Top Field First\nCompression mode                         : Lossy\nBits/(Pixel*Frame)                       : 0.379\nStream size                              : 2.42 GiB (70%)\nWriting library                          : created by Nero\n\nAudio\nID                                       : 189 (0xBD)-160 (0xA0)\nFormat                                   : PCM\nFormat settings, Endianness              : Big\nFormat settings, Sign                    : Signed\nMuxing mode                              : DVD-Video\nDuration                                 : 1h 28mn\nBit rate mode                            : Constant\nBit rate                                 : 1 536 Kbps\nChannel(s)                               : 2 channels\nSampling rate                            : 48.0 KHz\nBit depth                                : 16 bits\nDelay relative to video                  : -173ms\nStream size                              : 971 MiB (28%)\n\n\n\nAdvise welcome, using USB Capture.","torrent":{"xt":"urn:btih:600eaa7d8a043846975504c48093275b5904cf60","amp;dn":"Sweet+Talker+1991+VHS","amp;tr":["udp%3A%2F%2Ftracker.openbittorrent.com%3A80","udp%3A%2F%2Fopen.demonii.com%3A1337","udp%3A%2F%2Ftracker.coppersurfer.tk%3A6969","udp%3A%2F%2Fexodus.desync.com%3A6969"],"infoHash":"600eaa7d8a043846975504c48093275b5904cf60","infoHashBuffer":{"type":"Buffer","data":[96,14,170,125,138,4,56,70,151,85,4,196,128,147,39,91,89,4,207,96]},"announce":[],"urlList":[]}}